<svg width="936" height="320" viewBox="0 0 936 320" fill="none" xmlns="http://www.w3.org/2000/svg">
<path d="M292.351 223.181C268.684 272.551 218.229 306.73 159.976 306.73C79.0721 306.73 13.2238 240.881 13.2238 160.045C13.2238 79.2087 79.0721 13.2241 159.976 13.2241C218.026 13.2241 268.345 47.1318 292.148 96.2306C298.387 97.7221 304.219 100.164 309.644 103.351C286.723 42.9951 228.266 0 159.976 0C71.7484 0 0 71.7489 0 159.977C0 248.205 71.7484 319.954 159.976 319.954C228.469 319.954 287.062 276.688 309.78 215.992C304.422 219.18 298.522 221.621 292.351 223.181Z" fill="white"/>
<path d="M260.2 223.044C239.245 256.274 202.15 278.449 159.969 278.449C94.6628 278.449 41.5636 225.281 41.5636 160.043C41.5636 94.8044 94.6628 41.5692 159.969 41.5692C201.947 41.5692 238.906 63.5415 259.928 96.568C264.472 95.3468 269.22 94.6688 274.17 94.4655C251.384 54.929 208.728 28.3453 159.969 28.3453C87.3392 28.2774 28.2722 87.3452 28.2722 159.975C28.2722 232.606 87.3392 291.673 159.969 291.673C208.932 291.673 251.723 264.818 274.373 225.078C269.491 224.942 264.676 224.197 260.132 223.044" fill="white"/>
<path d="M234.839 210.088C218.631 234.231 191.098 250.1 159.971 250.1C110.262 250.1 69.8446 209.682 69.8446 159.973C69.8446 110.264 110.262 69.8456 159.971 69.8456C191.03 69.8456 218.427 85.647 234.703 109.586C238.094 106.737 241.756 104.296 245.689 102.193C227.108 74.7284 195.641 56.6216 160.038 56.6216C103.006 56.6216 56.6202 103.008 56.6202 160.04C56.6202 217.073 103.006 263.459 160.038 263.459C195.777 263.459 227.379 245.217 245.96 217.548C242.027 215.446 238.365 213.004 234.975 210.224" fill="white"/>
<path d="M124.792 151.294C128.251 133.459 142.424 121.795 161.209 121.795C181.079 121.795 192.267 135.968 195.183 151.294H124.792ZM161.209 104.027C128.996 104.027 105.6 127.559 105.6 159.975C105.6 192.391 129.335 215.923 161.954 215.923C182.367 215.923 199.456 207.039 208.815 191.509L210.985 187.983L194.98 178.556L192.946 182.286C187.521 192.255 175.992 198.223 162.158 198.223C143.17 198.223 128.657 186.762 124.86 169.333H214.172V165.197C214.172 164.519 214.172 163.772 214.24 163.094C214.24 162.213 214.376 161.331 214.376 160.449C214.376 145.733 209.289 131.832 200.134 121.388C190.301 110.198 176.467 104.095 161.209 104.095" fill="white"/>
<path d="M277.366 198.154C256.072 198.154 239.389 181.403 239.389 159.974C239.389 138.543 256.072 121.793 277.366 121.793C298.66 121.793 315.343 138.543 315.343 159.974C315.343 181.403 298.66 198.154 277.366 198.154ZM315.343 120.369C305.712 109.79 292.15 103.958 276.756 103.958C245.56 103.958 221.147 128.575 221.147 159.906C221.147 191.236 245.56 215.854 276.756 215.854C292.217 215.854 305.712 210.021 315.343 199.442V215.616H333.517V66.4556H315.343V120.369Z" fill="white"/>
<path d="M394.339 151.43C379.758 147.7 370.875 144.988 370.875 136.307C370.875 126.271 380.775 121.727 390.608 121.727C400.984 121.727 409.055 126.406 412.242 134.272L414.004 138.681L429.67 129.729L428.178 126.339C422.007 112.368 407.969 104.027 390.608 104.027C368.636 104.027 352.699 117.658 352.699 136.375C352.699 158.687 372.841 163.908 389.049 168.113C403.833 171.978 412.92 174.759 412.92 183.642C412.92 194.358 401.798 198.223 391.423 198.223C378.673 198.223 369.179 192.73 366.127 183.575L364.499 178.759L348.563 188.051L349.783 191.306C355.615 206.768 371.146 216.058 391.355 216.058C414.75 216.058 431.026 202.767 431.026 183.71C431.026 160.924 410.682 155.703 394.339 151.498" fill="white"/>
<path d="M476.534 76.9619L458.155 82.3873V103.191H436.319V121.162H458.155V184.586C458.155 195.436 461.071 203.167 466.971 208.253C472.125 212.661 479.246 214.831 488.876 214.831C492.944 214.831 497.556 214.424 502.574 213.679L506.101 213.136V196.182L501.625 196.589C491.046 197.538 482.637 198.013 479.246 194.893C477.415 193.198 476.466 189.808 476.466 184.586V121.162H506.101V103.191H476.466V76.9619H476.534Z" fill="white"/>
<path d="M528.2 151.294C531.659 133.459 545.832 121.795 564.617 121.795C584.487 121.795 595.677 135.968 598.593 151.294H528.2ZM564.617 104.027C532.405 104.027 509.008 127.559 509.008 159.975C509.008 192.391 532.744 215.923 565.363 215.923C585.776 215.923 602.865 207.039 612.223 191.509L614.393 187.983L598.389 178.556L596.355 182.286C590.929 192.255 579.401 198.223 565.567 198.223C546.578 198.223 532.066 186.762 528.268 169.333H617.581V165.197C617.581 164.519 617.581 163.772 617.648 163.094C617.648 162.213 617.784 161.331 617.784 160.449C617.784 145.733 612.698 131.832 603.543 121.388C593.71 110.198 579.876 104.095 564.617 104.095" fill="white"/>
<path fill-rule="evenodd" clip-rule="evenodd" d="M650.961 60.4888H632.787V215.752H650.961V60.4888Z" fill="white"/>
<path fill-rule="evenodd" clip-rule="evenodd" d="M691.515 60.4888H673.34V215.752H691.515V60.4888Z" fill="white"/>
<path d="M763.461 198.155C742.167 198.155 725.485 181.404 725.485 159.975C725.485 138.545 742.167 121.795 763.461 121.795C784.758 121.795 801.233 138.545 801.233 159.975C801.233 181.404 784.623 198.155 763.461 198.155ZM801.233 120.168C791.47 109.791 777.97 104.027 762.648 104.027C731.452 104.027 707.039 128.644 707.039 159.975C707.039 191.306 731.452 215.923 762.648 215.923C777.97 215.923 791.47 210.158 801.233 199.783V215.752H819.614V103.197H801.233V120.168Z" fill="white"/>
<path d="M889.179 104.838C877.044 104.838 867.213 108.704 860.154 116.028V103.195H841.985V215.75H860.154V154.411C860.154 124.844 882.399 122.606 889.179 122.606H893.323V104.838H889.179Z" fill="white"/>
<path d="M922.026 94.605C914.297 94.605 908.06 100.844 908.06 108.575C908.06 116.306 914.297 122.545 922.026 122.545C929.754 122.545 936 116.306 936 108.575C936 100.844 929.754 94.605 922.026 94.605ZM922.026 120.85C915.314 120.85 909.823 115.357 909.823 108.575C909.823 101.794 915.314 96.3007 922.026 96.3007C928.737 96.3007 934.237 101.794 934.237 108.575C934.237 115.357 928.737 120.85 922.026 120.85Z" fill="white"/>
<path d="M927.449 105.925C927.449 103.619 925.754 101.45 922.085 101.45H917.746V115.894H919.644V110.469H922.627L925.686 115.894H927.72L924.39 110.062C926.364 109.451 927.313 107.892 927.313 105.925H927.449ZM922.22 108.57H919.712V103.145H922.22C924.458 103.145 925.551 104.23 925.551 105.925C925.551 107.621 924.458 108.638 922.22 108.638" fill="white"/>
</svg>
