<svg width="32" height="32" viewBox="0 0 32 32" fill="none" xmlns="http://www.w3.org/2000/svg">
<g clip-path="url(#clip0_1619_324)">
<path d="M30.5997 0C29.8263 0 29.1992 0.627061 29.1992 1.4005C29.1992 2.17394 29.8263 2.80101 30.5997 2.80101C31.3732 2.80101 32.0002 2.17394 32.0002 1.4005C32.0002 0.627061 31.3732 0 30.5997 0ZM30.5997 2.6299C29.9252 2.6299 29.3753 2.079 29.3753 1.39951C29.3753 0.720033 29.9252 0.169129 30.5997 0.169129C31.2743 0.169129 31.8242 0.720033 31.8242 1.39951C31.8242 2.079 31.2733 2.6299 30.5997 2.6299Z" fill="#000A1C"/>
<path d="M31.145 1.13051C31.145 0.902042 30.9759 0.679504 30.6119 0.679504H30.1787V2.12649H30.3666V1.58152H30.6653L30.97 2.12649H31.1757L30.8463 1.54592C31.0461 1.48163 31.1401 1.32931 31.1401 1.13051H31.146H31.145ZM30.6179 1.40053H30.3666V0.855556H30.6179C30.8404 0.855556 30.9522 0.96732 30.9522 1.1315C30.9522 1.29569 30.8463 1.40152 30.6179 1.40152" fill="#000A1C"/>
<path d="M28.5896 23.5405C28.5402 23.6226 28.4888 23.7027 28.4383 23.7838C28.2247 24.1241 28.0002 24.4574 27.7608 24.7788C27.7588 24.7808 27.7578 24.7818 27.7569 24.7838C27.6471 24.9301 27.5333 25.0716 27.4186 25.214C27.3642 25.2813 27.3098 25.3495 27.2534 25.4158C27.1367 25.5552 27.018 25.6927 26.8974 25.8272C26.8479 25.8816 26.7975 25.935 26.747 25.9884C26.3346 26.4325 25.8954 26.8509 25.4316 27.2406C25.3722 27.29 25.3139 27.3395 25.2545 27.3879C25.1082 27.5076 24.9608 27.6243 24.8105 27.7371C24.762 27.7737 24.7115 27.8083 24.6631 27.8449C24.3228 28.0941 23.9737 28.3315 23.6127 28.5511C23.6097 28.5531 23.6068 28.555 23.6038 28.557C23.4396 28.6569 23.2715 28.7519 23.1033 28.8448C23.0351 28.8824 22.9669 28.92 22.8986 28.9566C22.7315 29.0456 22.5633 29.1336 22.3932 29.2157C22.3378 29.2424 22.2814 29.2671 22.2261 29.2939C21.87 29.461 21.507 29.6153 21.1361 29.7538C21.1005 29.7676 21.0649 29.7824 21.0283 29.7963C20.8523 29.8606 20.6742 29.9189 20.4952 29.9773C20.4111 30.005 20.3271 30.0307 20.242 30.0574C20.065 30.1108 19.8869 30.1622 19.7079 30.2087C19.6327 30.2285 19.5576 30.2443 19.4824 30.2631C19.1382 30.3472 18.7891 30.4184 18.435 30.4778C18.3559 30.4906 18.2768 30.5064 18.1976 30.5183C18.0206 30.545 17.8426 30.5668 17.6635 30.5865C17.5567 30.5984 17.4489 30.6103 17.3411 30.6192C17.1641 30.635 16.987 30.6498 16.809 30.6597C16.7022 30.6657 16.5954 30.6677 16.4885 30.6706C16.3263 30.6756 16.1641 30.6825 16.0009 30.6825C15.6647 30.6825 15.3304 30.6706 15 30.6489C14.9931 30.6489 14.9862 30.6479 14.9782 30.6469C14.6528 30.6241 14.3304 30.5915 14.0119 30.548C14.006 30.547 14.0001 30.546 13.9951 30.546C13.3503 30.457 12.7202 30.3264 12.105 30.1573C12.0862 30.1514 12.0675 30.1464 12.0497 30.1415C11.7579 30.0604 11.4711 29.9704 11.1882 29.8715C11.1743 29.8665 11.1595 29.8616 11.1457 29.8576C10.5582 29.6509 9.98747 29.4066 9.43657 29.1307C9.40492 29.1148 9.37426 29.099 9.3436 29.0832C9.09436 28.9556 8.84808 28.8211 8.60675 28.6796C8.58499 28.6668 8.56224 28.6549 8.54048 28.6411C8.02123 28.3335 7.52374 27.9942 7.048 27.6263C7.00745 27.5956 6.96888 27.564 6.92931 27.5333C6.72557 27.3731 6.52578 27.2069 6.33093 27.0358C6.30126 27.0091 6.2706 26.9844 6.24093 26.9577C6.01641 26.7579 5.79783 26.5512 5.58519 26.3376C5.57925 26.3316 5.57332 26.3247 5.56738 26.3188C5.37155 26.121 5.18363 25.9172 4.99966 25.7085C4.95516 25.6581 4.91164 25.6076 4.86812 25.5572C4.71185 25.3752 4.56052 25.1903 4.41315 25.0004C4.37953 24.9568 4.34491 24.9153 4.31128 24.8718C4.13523 24.6403 3.9661 24.405 3.8039 24.1626C3.78016 24.128 3.7584 24.0924 3.73664 24.0578C3.60213 23.854 3.47355 23.6463 3.34893 23.4357C2.06514 21.2558 1.32631 18.7199 1.32631 16.0128C1.32631 12.7786 2.38064 9.78572 4.15996 7.35758C4.20743 7.2933 4.25392 7.22901 4.30238 7.16472C4.41315 7.01834 4.5269 6.87295 4.64262 6.73151C4.68712 6.6781 4.73262 6.62568 4.77713 6.57227C5.17275 6.10247 5.59607 5.65839 6.04609 5.24199C6.09356 5.19847 6.14005 5.15397 6.18851 5.11144C6.33093 4.98286 6.47534 4.85725 6.62369 4.73461C6.67117 4.69406 6.72062 4.65548 6.76909 4.61691C7.25273 4.22425 7.7621 3.86127 8.29322 3.53192C8.34267 3.50125 8.39213 3.46961 8.44257 3.43894C8.60774 3.33905 8.77489 3.24311 8.94303 3.15113L9.12403 3.05321C9.67295 2.76045 10.2417 2.5033 10.8282 2.28175C10.8875 2.259 10.9459 2.23526 11.0052 2.21449C11.1823 2.1502 11.3613 2.08987 11.5423 2.03251C11.6194 2.00778 11.6976 1.98404 11.7757 1.96129C11.9587 1.90591 12.1406 1.8525 12.3266 1.80403C12.3622 1.79513 12.3978 1.78722 12.4344 1.77832C12.8132 1.68337 13.1979 1.60425 13.5876 1.53897C13.6648 1.52611 13.7409 1.51226 13.8181 1.50039C13.9981 1.47369 14.1801 1.45094 14.3631 1.43116C14.462 1.42028 14.5619 1.41039 14.6608 1.40149C14.8418 1.38566 15.0237 1.36984 15.2067 1.35995C15.2967 1.355 15.3867 1.35401 15.4757 1.35105C15.6518 1.34511 15.8269 1.33819 16.0029 1.33819C16.3352 1.33819 16.6646 1.34907 16.991 1.37083C16.9949 1.37083 16.9979 1.37083 17.0009 1.37182C17.3203 1.39358 17.6368 1.42523 17.9504 1.46677C17.9612 1.46875 17.9711 1.46973 17.981 1.47072C18.618 1.55677 19.2431 1.68436 19.8513 1.84953C19.8573 1.85151 19.8632 1.85349 19.8691 1.85547C20.1589 1.93459 20.4438 2.02262 20.7266 2.11954C20.7504 2.12746 20.7731 2.13537 20.7969 2.14328C21.3804 2.34604 21.9471 2.58341 22.4941 2.85441C22.5069 2.86035 22.5188 2.86727 22.5307 2.8732C22.7819 2.99881 23.0292 3.13234 23.2725 3.27179C23.3081 3.29256 23.3437 3.31235 23.3793 3.33312C23.8956 3.63478 24.3921 3.96611 24.8658 4.32613C24.8846 4.34096 24.9034 4.3558 24.9222 4.37063C25.1309 4.53086 25.3356 4.69702 25.5344 4.86813C25.579 4.90571 25.6225 4.9433 25.666 4.98187C25.8589 5.151 26.0478 5.32507 26.2317 5.50409C26.2555 5.52684 26.2792 5.5486 26.3029 5.57135C26.5116 5.77707 26.7154 5.98972 26.9112 6.2083C26.934 6.23402 26.9557 6.25973 26.9785 6.28545C27.1436 6.47139 27.3039 6.66228 27.4591 6.85712C27.5056 6.91449 27.5501 6.97284 27.5966 7.0312C27.7361 7.21021 27.8696 7.3922 28.0002 7.57814C28.0358 7.62859 28.0733 7.67903 28.109 7.73046C28.2702 7.96486 28.4245 8.20323 28.5718 8.44653C29.9071 10.6571 30.6765 13.2454 30.6765 16.0118C30.6765 18.7782 29.913 21.3409 28.5896 23.5455V23.5405ZM3.71686 5.77213C3.64466 5.85916 3.57345 5.94917 3.50322 6.03719C3.29849 6.29336 3.10167 6.55546 2.91276 6.82349C2.84847 6.91449 2.7822 7.00449 2.72088 7.09647C2.62296 7.24186 2.52999 7.39022 2.43702 7.53858C2.36878 7.64738 2.30053 7.75815 2.23426 7.86893C2.18283 7.95596 2.12646 8.03904 2.07602 8.12806C2.07898 8.12806 2.08195 8.12905 2.08492 8.13004C0.76156 10.4583 0.000976562 13.1465 0.000976562 16.0108C0.000976562 18.8751 0.704195 21.3715 1.94052 23.6404C1.94052 23.6404 1.94447 23.6463 1.94546 23.6493C2.09679 23.9272 2.25998 24.1992 2.42713 24.4663C2.47065 24.5355 2.51516 24.6037 2.55868 24.672C2.70209 24.8926 2.85045 25.1101 3.00276 25.3238C3.03837 25.3742 3.07298 25.4247 3.10958 25.4741C3.30245 25.7372 3.50322 25.9944 3.7129 26.2446C3.7317 26.2683 3.75345 26.2911 3.77324 26.3148C3.96313 26.5403 4.15996 26.7589 4.36271 26.9735C4.40821 27.021 4.45272 27.0695 4.49821 27.116C4.71581 27.3415 4.93834 27.561 5.16879 27.7737C5.17572 27.7796 5.18066 27.7855 5.18759 27.7905C5.43584 28.019 5.69299 28.2395 5.95509 28.4522C5.98476 28.4759 6.01444 28.4987 6.04411 28.5214C6.27851 28.7083 6.51885 28.8883 6.76414 29.0624C6.80074 29.0891 6.83733 29.1148 6.87393 29.1405C7.42582 29.5253 8.00244 29.8764 8.60181 30.1899C8.63445 30.2068 8.66708 30.2226 8.69873 30.2394C8.98655 30.3877 9.27832 30.5282 9.57603 30.6588C9.58987 30.6647 9.60273 30.6706 9.61658 30.6775C10.2525 30.9555 10.9093 31.1918 11.5848 31.3857C11.6135 31.3936 11.6422 31.4015 11.6708 31.4104C12.6906 31.6973 13.7518 31.8862 14.8427 31.9643C14.8596 31.9663 14.8764 31.9673 14.8932 31.9683C15.2591 31.994 15.6281 32.0108 16.0019 32.0108C16.1513 32.0108 16.2986 31.9999 16.448 31.996C16.6013 31.991 16.7546 31.988 16.9069 31.9801C17.0889 31.9702 17.2689 31.9554 17.4489 31.9386C17.5894 31.9257 17.7278 31.9109 17.8663 31.8941C18.0473 31.8733 18.2273 31.8525 18.4073 31.8258C18.5379 31.8061 18.6674 31.7803 18.797 31.7576C19.1145 31.7012 19.429 31.6359 19.7396 31.5608C19.8622 31.5321 19.9839 31.5024 20.1055 31.4708C20.2855 31.4233 20.4645 31.3719 20.6416 31.3184C20.7573 31.2838 20.871 31.2453 20.9858 31.2077C21.3408 31.091 21.69 30.9624 22.0342 30.8219C22.1004 30.7952 22.1667 30.7705 22.232 30.7428C22.408 30.6686 22.5801 30.5885 22.7512 30.5074C22.8551 30.459 22.9589 30.4105 23.0608 30.3591C23.2299 30.275 23.3981 30.1899 23.5642 30.1009C23.6562 30.0515 23.7462 29.9981 23.8382 29.9466C24.1409 29.7755 24.4366 29.5955 24.7274 29.4056C24.8124 29.3502 24.8985 29.2958 24.9835 29.2385C25.1388 29.1326 25.2911 29.0229 25.4425 28.9121C25.5335 28.8448 25.6235 28.7776 25.7135 28.7083C25.8628 28.5936 26.0122 28.4789 26.1575 28.3592C26.2179 28.3097 26.2752 28.2573 26.3336 28.2079C26.6086 27.9754 26.8746 27.7331 27.1337 27.4819C27.2158 27.4028 27.2979 27.3227 27.379 27.2416C27.5076 27.112 27.6332 26.9795 27.7578 26.845C27.8389 26.7579 27.9171 26.6679 27.9952 26.5789C28.2148 26.3306 28.4264 26.0745 28.6302 25.8124C28.6955 25.7283 28.7617 25.6472 28.825 25.5631C28.9309 25.4217 29.0317 25.2763 29.1326 25.1319C29.2068 25.0251 29.28 24.9183 29.3512 24.8105C29.4471 24.6651 29.5421 24.5197 29.6341 24.3703C29.7063 24.2526 29.7745 24.133 29.8438 24.0143C29.915 23.8906 29.9921 23.772 30.0614 23.6463C30.0594 23.6463 30.0584 23.6463 30.0564 23.6463C31.2947 21.3755 31.9999 18.7733 31.9999 16.0089C31.9999 13.2444 31.2413 10.4612 29.9199 8.13498H29.9249C29.9001 8.09146 29.8715 8.04992 29.8467 8.00739C29.7211 7.79079 29.5906 7.57715 29.4551 7.36846C29.4165 7.30813 29.3789 7.2478 29.3393 7.18846C29.1623 6.92141 28.9783 6.65832 28.7855 6.40216C28.7766 6.39029 28.7677 6.37941 28.7588 6.36754C28.5758 6.12522 28.3839 5.89081 28.1881 5.65938C28.1436 5.60696 28.0981 5.55454 28.0516 5.50212C27.8696 5.29342 27.6817 5.08869 27.4898 4.88989C27.4591 4.85923 27.4305 4.82659 27.4008 4.79692C27.1684 4.56053 26.93 4.33107 26.6837 4.11051C26.6748 4.1026 26.6659 4.09568 26.657 4.08777C26.4256 3.88105 26.1872 3.68225 25.9439 3.4884C25.9014 3.45477 25.8589 3.42213 25.8163 3.3885C25.57 3.19663 25.3188 3.00969 25.0617 2.83265C25.0538 2.82771 25.0478 2.82276 25.0399 2.81782C24.757 2.62396 24.4682 2.43901 24.1735 2.26296C24.1656 2.25801 24.1587 2.25406 24.1508 2.2501C23.8748 2.08592 23.5939 1.93162 23.3081 1.78425C23.2725 1.76645 23.2369 1.74766 23.2013 1.72986C22.5969 1.42424 21.9709 1.15423 21.326 0.925753C21.3191 0.922786 21.3112 0.920808 21.3033 0.91883C20.9897 0.808056 20.6722 0.708161 20.3498 0.617168C20.3231 0.609256 20.2984 0.602332 20.2717 0.59442C19.6001 0.408477 18.9117 0.264075 18.2085 0.166159C18.1996 0.166159 18.1917 0.16418 18.1828 0.163191C17.8386 0.115717 17.4905 0.0801107 17.1393 0.0553843C17.1245 0.0553843 17.1087 0.0524171 17.0929 0.051428C16.7318 0.0267016 16.3679 0.0098877 15.9999 0.0098877C15.8397 0.0098877 15.6834 0.0217564 15.5242 0.0257126C15.3848 0.0296688 15.2453 0.032636 15.1068 0.0395594C14.9209 0.050439 14.7369 0.0652748 14.5539 0.0820888C14.4234 0.0939574 14.2928 0.107804 14.1623 0.12264C13.9773 0.144399 13.7924 0.166159 13.6094 0.192863C13.4966 0.209677 13.3849 0.231436 13.2721 0.250228C12.9319 0.309572 12.5956 0.377816 12.2633 0.45793C12.1525 0.484635 12.0408 0.509361 11.931 0.539033C11.748 0.587496 11.567 0.639916 11.386 0.694314C11.2762 0.726953 11.1674 0.762559 11.0586 0.797176C10.8766 0.85652 10.6946 0.915863 10.5156 0.981141C10.4622 1.00092 10.4108 1.02268 10.3584 1.04246C9.98846 1.18291 9.62647 1.33621 9.27041 1.50138C9.17744 1.5449 9.08348 1.58743 8.99149 1.63194C8.8194 1.71601 8.65027 1.80305 8.48114 1.89305C8.38916 1.9425 8.29718 1.99393 8.20618 2.04536C7.64935 2.35791 7.11328 2.70111 6.60095 3.07497C6.51688 3.13629 6.43281 3.19663 6.35071 3.25894C6.20038 3.37367 6.05202 3.48939 5.90465 3.61005C5.82355 3.67632 5.74442 3.74357 5.6653 3.81083C5.33495 4.09073 5.0145 4.38151 4.70888 4.68614C4.70295 4.69208 4.69602 4.69801 4.69009 4.70395C4.55855 4.83648 4.43096 4.97297 4.30238 5.10946C4.22622 5.19155 4.15007 5.27364 4.0749 5.35771C3.95225 5.4942 3.83258 5.63267 3.71488 5.77312H3.71686V5.77213Z" fill="#255FFF"/>
<path d="M25.1659 23.501C25.1461 23.5257 25.1254 23.5495 25.1056 23.5742C24.6378 24.135 24.1205 24.6532 23.5587 25.1201C23.5389 25.1359 23.5201 25.1517 23.5013 25.1676C22.9326 25.6344 22.3204 26.0478 21.6716 26.4039C21.6508 26.4147 21.631 26.4266 21.6103 26.4375C20.9595 26.7896 20.2711 27.0814 19.555 27.3069C19.5303 27.3148 19.5065 27.3217 19.4828 27.3296C18.7667 27.5502 18.023 27.7045 17.2574 27.7856C17.2258 27.7885 17.1941 27.7915 17.1635 27.7945C16.7807 27.8321 16.394 27.8538 16.0013 27.8538C15.9202 27.8538 15.8411 27.8479 15.761 27.8459C15.5068 27.841 15.2546 27.8291 15.0034 27.8073C14.8629 27.7955 14.7235 27.7816 14.585 27.7648C14.3338 27.7342 14.0845 27.6966 13.8383 27.6511C13.6939 27.6244 13.5514 27.5957 13.408 27.563C13.1608 27.5067 12.9165 27.4444 12.6751 27.3741C12.5485 27.3365 12.4219 27.298 12.2963 27.2554C12.053 27.1753 11.8137 27.0873 11.5773 26.9914C11.4596 26.9439 11.3419 26.8944 11.2262 26.843C10.9888 26.7382 10.7564 26.6254 10.5269 26.5057C10.4171 26.4484 10.3083 26.389 10.2005 26.3277C9.96908 26.1972 9.74061 26.0587 9.51807 25.9133C9.43104 25.8569 9.34598 25.7986 9.25993 25.7392C9.0364 25.5839 8.8198 25.4207 8.60814 25.2516C8.51913 25.1804 8.43011 25.1072 8.34308 25.033C8.12845 24.8501 7.91877 24.6612 7.717 24.4643C7.66063 24.4089 7.60524 24.3545 7.55084 24.2982C7.34907 24.0934 7.15621 23.8798 6.97027 23.6602C6.90202 23.5801 6.83477 23.498 6.7685 23.4159C6.57959 23.1805 6.39661 22.9402 6.22551 22.691C6.19682 22.6494 6.16913 22.6079 6.14144 22.5663C4.88731 20.6871 4.15343 18.4331 4.15343 16.0099C4.15343 13.5867 4.89622 11.301 6.16517 9.41387C6.17309 9.40299 6.18001 9.39112 6.18792 9.38024C6.3976 9.07066 6.62113 8.77197 6.8585 8.48416C6.86246 8.47921 6.86543 8.47525 6.86938 8.4713C7.34907 7.89072 7.88316 7.35663 8.46374 6.87694C8.46869 6.87298 8.47363 6.86903 8.47759 6.86507C9.05717 6.38736 9.68325 5.96404 10.3469 5.60205C10.3558 5.5971 10.3647 5.59216 10.3736 5.5882C11.0333 5.23016 11.7306 4.93443 12.4575 4.70596C12.4744 4.70003 12.4922 4.69508 12.51 4.69014C13.23 4.4676 13.9787 4.31331 14.7502 4.2322C14.7779 4.22924 14.8056 4.22627 14.8333 4.2233C15.217 4.18572 15.6057 4.16396 16.0003 4.16396C16.0785 4.16396 16.1546 4.16989 16.2318 4.17187C16.4889 4.17682 16.7441 4.18869 16.9963 4.21044C17.1338 4.22231 17.2693 4.23517 17.4048 4.25199C17.6808 4.28462 17.9537 4.32518 18.2228 4.37661C18.3513 4.40133 18.4789 4.43002 18.6065 4.4587C18.8459 4.5131 19.0822 4.57343 19.3157 4.64167C19.4373 4.67728 19.558 4.71289 19.6767 4.75245C19.9694 4.84839 20.2592 4.95224 20.5411 5.06895C20.6281 5.10554 20.7122 5.14807 20.7992 5.18664C21.0238 5.28654 21.2433 5.39237 21.4609 5.50512C21.5618 5.55754 21.6637 5.61095 21.7626 5.66634C22.0336 5.81766 22.2977 5.9769 22.5538 6.14801C22.629 6.19845 22.7012 6.25285 22.7754 6.30428C22.9811 6.44868 23.1819 6.59901 23.3787 6.75529C23.4588 6.81957 23.5389 6.88188 23.6171 6.94716C23.8564 7.14992 24.0898 7.3596 24.3124 7.58016C24.3747 7.64148 24.433 7.70478 24.4934 7.76709C24.6754 7.95402 24.8504 8.14689 25.0195 8.34569C25.0769 8.41294 25.1363 8.47921 25.1926 8.54844C25.3944 8.7967 25.5863 9.05385 25.7683 9.31793C25.8157 9.38716 25.8593 9.45838 25.9057 9.52761C27.1292 11.392 27.8473 13.6154 27.8473 16.0069C27.8473 18.8485 26.8404 21.4576 25.1669 23.501H25.1659ZM5.39965 8.20623C5.30667 8.33184 5.21667 8.45943 5.12765 8.58801C5.08216 8.65427 5.03864 8.72153 4.99413 8.78878C4.92787 8.88868 4.85863 8.9866 4.79533 9.08847C4.79731 9.08946 4.7983 9.09045 4.80028 9.09144C3.55209 11.1032 2.83008 13.4739 2.83008 16.0099C2.83008 18.5458 3.5056 20.7583 4.67763 22.7256C4.67763 22.7256 4.67763 22.7256 4.67566 22.7256C4.68258 22.7365 4.6895 22.7463 4.69643 22.7572C4.83094 22.9827 4.97336 23.2053 5.12172 23.4219C5.13359 23.4387 5.14645 23.4555 5.15733 23.4723C5.29382 23.6691 5.43525 23.862 5.58064 24.0509C5.61328 24.0924 5.64592 24.134 5.67856 24.1745C5.82296 24.3555 5.97132 24.5336 6.12363 24.7076C6.14243 24.7284 6.16023 24.7502 6.17902 24.7709C6.53607 25.1705 6.91686 25.5464 7.31841 25.9004C7.34413 25.9232 7.36984 25.9449 7.39556 25.9677C7.58546 26.1319 7.7803 26.2921 7.98009 26.4454C7.98998 26.4533 7.99987 26.4612 8.00976 26.4691C8.44495 26.8025 8.89991 27.1071 9.37565 27.385C9.39147 27.3939 9.40829 27.4038 9.42411 27.4127C9.65654 27.5472 9.89293 27.6758 10.1343 27.7955C10.1362 27.7965 10.1392 27.7984 10.1412 27.7994C10.6416 28.0497 11.1609 28.2682 11.696 28.4532C11.7029 28.4562 11.7108 28.4581 11.7177 28.4611C13.0619 28.924 14.5019 29.1801 16.0013 29.1801C16.1744 29.1801 16.3435 29.1693 16.5147 29.1633C16.5789 29.1604 16.6432 29.1604 16.7065 29.1574C16.8786 29.1485 17.0487 29.1337 17.2199 29.1178C17.3 29.1109 17.3801 29.103 17.4602 29.0941C17.6313 29.0753 17.8024 29.0545 17.9715 29.0288C18.0249 29.0209 18.0774 29.01 18.1308 29.0021C18.4967 28.9418 18.8577 28.8686 19.2128 28.7786C19.2405 28.7717 19.2692 28.7657 19.2979 28.7578C19.468 28.7133 19.6371 28.6649 19.8052 28.6134C19.8705 28.5936 19.9358 28.5729 20.0011 28.5531C20.1672 28.4997 20.3314 28.4453 20.4946 28.3859C20.5391 28.3701 20.5836 28.3523 20.6271 28.3355C21.1612 28.1337 21.6775 27.9003 22.176 27.6343C22.2324 27.6046 22.2888 27.5739 22.3442 27.5433C22.4955 27.4602 22.6448 27.3741 22.7922 27.2851C22.8347 27.2594 22.8773 27.2317 22.9198 27.206C23.3945 26.9113 23.8485 26.5878 24.2807 26.2377C24.3322 26.1962 24.3826 26.1546 24.433 26.1131C24.5626 26.0053 24.6902 25.8955 24.8148 25.7827C24.8583 25.7432 24.9009 25.7016 24.9444 25.6621C25.343 25.2922 25.7188 24.8985 26.0699 24.4821C26.1174 24.4267 26.1649 24.3704 26.2114 24.314C26.3132 24.1884 26.4131 24.0628 26.511 23.9332C26.5556 23.8739 26.5981 23.8135 26.6416 23.7542C26.8839 23.4229 27.1154 23.0846 27.326 22.7305C27.324 22.7305 27.3231 22.7285 27.3211 22.7275C28.4941 20.7583 29.1716 18.4598 29.1716 16.0059C29.1716 13.5521 28.4506 11.1032 27.2054 9.09341H27.2063C27.1935 9.07165 27.1787 9.05286 27.1668 9.03209C27.0461 8.8412 26.9215 8.65229 26.7919 8.46734C26.7613 8.42382 26.7306 8.3803 26.7 8.33778C26.5674 8.15282 26.429 7.97182 26.2875 7.79379C26.2697 7.77204 26.2529 7.74929 26.2361 7.72753C25.9028 7.31707 25.5457 6.92738 25.1669 6.56044C25.1442 6.53769 25.1204 6.51593 25.0977 6.49418C24.9246 6.32801 24.7456 6.1668 24.5626 6.00954C24.5448 5.9947 24.528 5.97888 24.5102 5.96404C24.0997 5.61589 23.6695 5.29247 23.2185 4.99674C23.2106 4.9918 23.2036 4.98685 23.1957 4.98191C22.9791 4.84047 22.7586 4.70497 22.5331 4.5764C22.5172 4.56651 22.5004 4.5576 22.4836 4.54771C21.7754 4.14616 21.0277 3.8079 20.2464 3.54085C20.2335 3.5369 20.2206 3.53195 20.2088 3.528C19.4195 3.26095 18.5976 3.0671 17.75 2.95434C17.747 2.95434 17.7441 2.95336 17.7411 2.95237C17.1714 2.8772 16.5908 2.83368 16.0013 2.83368C15.8164 2.83368 15.6334 2.84456 15.4504 2.85148C15.402 2.85346 15.3535 2.85346 15.305 2.85643C15.128 2.86533 14.9539 2.88016 14.7799 2.89698C14.7057 2.9039 14.6325 2.91083 14.5593 2.91874C14.3852 2.93753 14.2121 2.95929 14.04 2.985C13.9866 2.99292 13.9332 3.00281 13.8788 3.01171C13.3052 3.10468 12.7434 3.23524 12.1974 3.4014C12.143 3.41722 12.0876 3.43404 12.0332 3.45085C11.8641 3.50426 11.697 3.56064 11.5318 3.62097C11.4804 3.63877 11.4299 3.65855 11.3795 3.67833C10.8424 3.8801 10.3212 4.11648 9.81875 4.38452C9.77918 4.40628 9.73863 4.42606 9.69907 4.44782C9.54577 4.53189 9.39444 4.61892 9.24509 4.70992C9.19465 4.73959 9.14421 4.77124 9.09476 4.8019C8.94442 4.89487 8.79507 4.98883 8.6477 5.08774C8.6388 5.09466 8.6299 5.1006 8.62001 5.10653C8.30055 5.32412 7.99097 5.55556 7.69228 5.79887C7.66755 5.81964 7.64184 5.83843 7.61711 5.8592C7.48655 5.968 7.35897 6.07976 7.23237 6.1935C7.18291 6.23801 7.13247 6.28351 7.08302 6.329C6.96136 6.44176 6.8407 6.5555 6.72201 6.67319C6.68146 6.71375 6.64289 6.7543 6.60333 6.79485C6.22452 7.18058 5.87044 7.58906 5.54207 8.01831C5.49459 8.08062 5.44811 8.14194 5.40162 8.20425H5.39965V8.20623Z" fill="#779DD8"/>
<path d="M8.54327 10.9518C8.69657 10.7273 8.85976 10.5097 9.03186 10.299C9.04076 10.2881 9.04867 10.2773 9.05856 10.2664C9.42056 9.83021 9.82212 9.42766 10.2593 9.06567C10.2682 9.05776 10.2771 9.05083 10.287 9.04292C10.9447 8.50191 11.6815 8.05189 12.4758 7.71363C12.4896 7.70769 12.5034 7.70176 12.5173 7.69583C13.0504 7.4723 13.6082 7.29625 14.1868 7.17756C14.1888 7.17756 14.1918 7.17657 14.1937 7.17657C14.4746 7.11921 14.7615 7.07569 15.0513 7.04503C15.07 7.04305 15.0878 7.04107 15.1066 7.03909C15.4024 7.00942 15.7011 6.9936 16.0047 6.9936C16.1036 6.9936 16.2015 7.00151 16.2994 7.00448C16.4557 7.00942 16.611 7.01536 16.7633 7.02821C16.8949 7.03909 17.0254 7.05492 17.156 7.07173C17.2934 7.08953 17.4299 7.11129 17.5664 7.13503C17.6901 7.15679 17.8147 7.17756 17.9373 7.20426C18.1559 7.25273 18.3725 7.30812 18.5852 7.37142C18.7009 7.40603 18.8136 7.44757 18.9274 7.48615C19.0688 7.53461 19.2092 7.58505 19.3467 7.63945C19.4575 7.68396 19.5673 7.73044 19.6761 7.77891C19.8145 7.84122 19.95 7.90748 20.0846 7.97672C20.1775 8.02419 20.2715 8.0687 20.3635 8.11914C20.5692 8.23288 20.769 8.35553 20.9638 8.4841C21.0489 8.53949 21.13 8.60081 21.2131 8.66016C21.3426 8.75214 21.4702 8.8461 21.5939 8.945C21.675 9.00929 21.7561 9.07358 21.8352 9.14183C21.9806 9.26546 22.121 9.39403 22.2575 9.52657C22.3129 9.57998 22.3703 9.6324 22.4237 9.6868C22.5849 9.85098 22.7392 10.0211 22.8875 10.1971C22.9469 10.2664 23.0023 10.3386 23.0596 10.4098C23.1694 10.5483 23.2743 10.6887 23.3761 10.8331C23.4256 10.9043 23.477 10.9736 23.5245 11.0458C23.663 11.2535 23.7935 11.4671 23.9142 11.6867C23.9389 11.7332 23.9607 11.7816 23.9854 11.8281C24.6431 13.0793 25.0199 14.4995 25.0199 16.0079C25.0199 17.8584 24.4572 19.5803 23.4978 21.0135C23.4839 21.0352 23.4691 21.056 23.4543 21.0778C22.9775 21.778 22.4039 22.407 21.7541 22.9471C21.7422 22.957 21.7294 22.9678 21.7165 22.9777C21.0588 23.5187 20.3239 23.9668 19.5307 24.306C19.5178 24.312 19.504 24.3169 19.4921 24.3228C18.961 24.5464 18.4042 24.7214 17.8285 24.8401C17.8186 24.8421 17.8078 24.8441 17.7979 24.8461C17.5219 24.9014 17.242 24.944 16.9582 24.9746C16.9394 24.9766 16.9196 24.9796 16.9008 24.9816C16.6051 25.0112 16.3064 25.0271 16.0027 25.0271C15.8989 25.0271 15.797 25.0191 15.6941 25.0162C15.5418 25.0102 15.3905 25.0053 15.2402 24.9924C15.1066 24.9816 14.9731 24.9647 14.8416 24.9469C14.7061 24.9301 14.5716 24.9094 14.439 24.8856C14.3114 24.8629 14.1839 24.8411 14.0582 24.8134C13.8891 24.7758 13.722 24.7303 13.5568 24.6838C13.3946 24.6384 13.2344 24.5869 13.0761 24.5325C12.9307 24.4821 12.7853 24.4306 12.6439 24.3733C12.5321 24.3278 12.4223 24.2803 12.3126 24.2299C12.18 24.1695 12.0495 24.1062 11.9199 24.041C11.82 23.9895 11.7181 23.9401 11.6202 23.8857C11.4145 23.77 11.2117 23.6483 11.0159 23.5187C10.9397 23.4673 10.8666 23.4109 10.7914 23.3575C10.6549 23.2616 10.5214 23.1627 10.3918 23.0578C10.3087 22.9916 10.2276 22.9243 10.1475 22.8551C10.0219 22.7473 9.90025 22.6355 9.78058 22.5208C9.71431 22.4575 9.64705 22.3962 9.58178 22.3309C9.41067 22.1558 9.2455 21.9758 9.08824 21.7879C9.03878 21.7286 8.99428 21.6672 8.9468 21.6079C8.83108 21.4625 8.71932 21.3141 8.6125 21.1618C8.56107 21.0876 8.50964 21.0125 8.46118 20.9373C8.35436 20.7741 8.25248 20.606 8.15655 20.4359C8.1249 20.3795 8.09028 20.3241 8.05863 20.2677C7.37717 18.9997 6.98847 17.5518 6.98847 16.0148C6.98847 14.1553 7.5552 12.4265 8.52349 10.9894C8.5314 10.9775 8.53931 10.9666 8.54722 10.9558L8.54327 10.9518ZM7.4464 10.209C7.43849 10.2219 7.42959 10.2337 7.42069 10.2456C7.26343 10.479 7.11309 10.7154 6.97462 10.9607C6.9766 10.9637 6.97858 10.9656 6.98056 10.9686C6.14184 12.4621 5.65918 14.1801 5.65918 16.0108C5.65918 17.8416 6.10623 19.4379 6.88858 20.8928V20.8948C6.89055 20.9017 6.8955 20.9076 6.89847 20.9136C6.91924 20.9521 6.94297 20.9887 6.96473 21.0273C7.08738 21.2469 7.21892 21.4615 7.35739 21.6712C7.40684 21.7473 7.45827 21.8225 7.5097 21.8977C7.65213 22.1024 7.80049 22.3022 7.95775 22.4961C7.98841 22.5346 8.01808 22.5752 8.04973 22.6138C8.22578 22.8254 8.41172 23.0272 8.6036 23.224C8.67382 23.2962 8.74602 23.3664 8.81921 23.4367C8.96955 23.582 9.12582 23.7225 9.28506 23.86C9.35034 23.9163 9.41364 23.9747 9.48089 24.0291C9.68958 24.1992 9.90619 24.3604 10.1287 24.5137C10.2177 24.5751 10.3097 24.6334 10.4007 24.6928C10.5609 24.7956 10.7231 24.8945 10.8883 24.9895C10.9833 25.0439 11.0762 25.0993 11.1722 25.1507C11.4066 25.2753 11.6459 25.391 11.8902 25.4969C11.9941 25.5423 12.0999 25.5809 12.2048 25.6225C12.3739 25.6897 12.545 25.753 12.7191 25.8114C12.8358 25.8499 12.9535 25.8905 13.0722 25.9251C13.3224 25.9993 13.5756 26.0665 13.8327 26.1219C13.9475 26.1467 14.0652 26.1635 14.1809 26.1842C14.3639 26.2169 14.5478 26.2456 14.7338 26.2683C14.8663 26.2851 14.9988 26.299 15.1333 26.3108C15.3361 26.3277 15.5398 26.3375 15.7456 26.3425C15.8326 26.3445 15.9167 26.3554 16.0037 26.3554C16.3479 26.3554 16.6862 26.3326 17.0215 26.3C17.0472 26.297 17.0719 26.295 17.0976 26.2921C17.7721 26.2208 18.4279 26.0853 19.0579 25.8895C19.0708 25.8856 19.0836 25.8816 19.0955 25.8776C20.0549 25.576 20.9539 25.1398 21.7709 24.5889C21.7758 24.5859 21.7798 24.583 21.7838 24.58C22.3248 24.214 22.8272 23.7977 23.2891 23.3387C23.301 23.3269 23.3128 23.315 23.3247 23.3041C23.7777 22.8491 24.1882 22.3526 24.5501 21.8205C24.565 21.7988 24.5798 21.777 24.5947 21.7553C24.7796 21.4793 24.9557 21.1974 25.1139 20.9027C25.1139 20.9007 25.1109 20.8997 25.11 20.8977C25.8943 19.4409 26.3413 17.7783 26.3413 16.0108C26.3413 14.2434 25.8597 12.4651 25.0239 10.9726C25.0239 10.9716 25.0259 10.9696 25.0269 10.9686C24.9003 10.7431 24.7638 10.5245 24.6214 10.3099C24.5719 10.2367 24.5205 10.1655 24.47 10.0923C24.3474 9.91725 24.2198 9.74713 24.0873 9.57998C24.0309 9.50877 23.9765 9.43755 23.9181 9.36832C23.7431 9.16062 23.5601 8.95885 23.3692 8.765C23.3029 8.69774 23.2347 8.63543 23.1665 8.56916C23.0211 8.42971 22.8727 8.2942 22.7194 8.16365C22.6413 8.09639 22.5641 8.02914 22.483 7.96386C22.2763 7.79671 22.0627 7.63648 21.8431 7.48516C21.762 7.42977 21.6769 7.37834 21.5948 7.32493C21.4326 7.22009 21.2685 7.1202 21.1003 7.02426C21.0014 6.96788 20.9025 6.9115 20.8006 6.8581C20.5672 6.73545 20.3308 6.61874 20.0875 6.5139C19.9946 6.47335 19.8986 6.43973 19.8037 6.40214C19.6266 6.33192 19.4476 6.26565 19.2666 6.20532C19.1499 6.16576 19.0332 6.12817 18.9145 6.09356C18.6989 6.03026 18.4803 5.97388 18.2588 5.92443C18.1193 5.89377 17.9789 5.86706 17.8374 5.84135C17.6465 5.80673 17.4556 5.77706 17.2618 5.75332C17.1312 5.7375 17.0007 5.72365 16.8681 5.71277C16.6654 5.69595 16.4597 5.68606 16.253 5.68211C16.1689 5.67914 16.0868 5.66925 16.0017 5.66925C15.6566 5.66925 15.3173 5.692 14.981 5.72563C14.9583 5.7276 14.9355 5.73057 14.9138 5.73255C14.2383 5.80376 13.5825 5.93926 12.9525 6.13411C12.9376 6.13905 12.9228 6.144 12.908 6.14795C12.274 6.34774 11.6657 6.60589 11.0901 6.91744C11.0812 6.92238 11.0723 6.92733 11.0624 6.93227C10.4848 7.24778 9.9408 7.61571 9.43638 8.0321C9.43045 8.03705 9.42452 8.042 9.41858 8.04694C8.91416 8.46432 8.4503 8.92819 8.03291 9.43261C8.02698 9.43953 8.02105 9.44744 8.0161 9.45437C7.81532 9.69866 7.62641 9.95087 7.44838 10.213L7.4464 10.209Z" fill="#92B4EA"/>
<path d="M12.5277 15.359C12.8828 13.5372 14.3278 12.3434 16.2466 12.3434C18.2781 12.3434 19.4175 13.7934 19.7221 15.359H12.5277ZM16.2466 10.5265C12.955 10.5265 10.5654 12.9329 10.5654 16.2472C10.5654 19.5615 12.9886 21.9679 16.3277 21.9679C18.4126 21.9679 20.1573 21.057 21.1147 19.4695L21.3343 19.1056L19.7003 18.1403L19.4917 18.522C18.9338 19.5417 17.7588 20.151 16.3484 20.151C14.4049 20.151 12.9263 18.9819 12.5376 17.1957H21.6636V16.7754C21.6636 16.7032 21.6686 16.63 21.6725 16.5578C21.6785 16.4678 21.6834 16.3778 21.6834 16.2878C21.6834 14.7814 21.1661 13.3641 20.2275 12.2959C19.2246 11.1546 17.8103 10.5255 16.2466 10.5255V10.5265Z" fill="#000A1C"/>
</g>
<defs>
<clipPath id="clip0_1619_324">
<rect width="32" height="32" fill="white"/>
</clipPath>
</defs>
</svg>
